<?xml version="1.0" standalone="no"?>
<!DOCTYPE svg PUBLIC "-//W3C//DTD SVG 20010904//EN"
 "http://www.w3.org/TR/2001/REC-SVG-20010904/DTD/svg10.dtd">
<svg version="1.0" xmlns="http://www.w3.org/2000/svg"
 width="300.000000pt" height="75.000000pt" viewBox="0 0 300.000000 75.000000"
 preserveAspectRatio="xMidYMid meet">
<metadata>
Created by potrace 1.10, written by Peter Selinger 2001-2011
</metadata>
<g transform="translate(0.000000,75.000000) scale(0.100000,-0.100000)"
fill="#000000" stroke="none">
<path d="M1164 619 c5 -27 3 -29 -24 -29 -25 0 -30 -4 -30 -25 0 -20 -5 -25
-25 -25 -24 0 -25 -3 -25 -56 l0 -57 -72 6 c-40 3 -63 3 -52 0 12 -2 24 -13
27 -24 5 -19 4 -20 -12 -5 -10 9 -29 16 -42 16 -23 0 -24 -3 -21 -40 4 -40 18
-50 40 -28 9 9 12 5 11 -17 0 -17 -3 -24 -6 -18 -2 7 -13 13 -24 13 -16 0 -19
-7 -19 -40 0 -38 2 -40 30 -40 29 0 34 7 31 43 -3 23 15 22 22 -3 10 -39 -18
-55 -88 -52 l-30 2 0 92 0 93 30 6 c17 3 -104 5 -268 5 l-297 -1 0 28 c0 17
-5 27 -15 27 -9 0 -15 -9 -15 -25 0 -16 -6 -25 -16 -25 -9 0 -14 -8 -13 -17 3
-35 -1 -43 -25 -43 -19 0 -23 5 -20 26 1 16 -4 27 -14 32 -21 7 -42 28 -42 40
0 5 -14 9 -30 9 -21 0 -29 -4 -26 -13 9 -23 -23 -44 -65 -44 -39 0 -53 -15
-23 -27 12 -4 13 -8 3 -14 -8 -4 -14 -30 -14 -63 -2 -50 0 -55 22 -60 16 -5
23 -14 23 -30 l0 -24 208 1 c115 0 213 -3 219 -6 6 -4 10 -15 8 -25 -1 -9 0
-11 2 -4 6 15 20 16 29 0 4 -7 3 -8 -4 -4 -7 4 -12 2 -12 -3 0 -6 21 -11 48
-11 37 1 43 3 30 11 -10 5 -18 15 -18 22 0 7 4 6 10 -3 8 -13 10 -12 10 3 0
12 8 17 28 17 15 1 123 2 240 3 l212 2 0 -52 c0 -50 2 -53 25 -53 21 0 25 -5
25 -31 0 -30 1 -31 40 -27 28 2 40 0 40 -9 0 -7 7 -13 15 -13 8 0 15 -6 15
-13 0 -9 33 -13 135 -13 l134 0 3 25 c3 24 7 26 51 26 46 -1 51 3 48 37 -2 14
5 18 28 18 30 0 31 2 30 37 -3 72 1 104 11 98 6 -3 10 1 10 9 0 9 6 16 14 16
10 0 13 -9 10 -29 l-5 -29 166 0 165 0 0 29 c0 16 5 29 10 29 6 0 10 7 10 15
0 8 -5 15 -10 15 -6 0 -10 22 -9 53 3 77 -5 95 -39 89 l-27 -6 25 -6 c14 -3
26 -14 28 -25 3 -18 2 -19 -8 -2 -6 9 -20 17 -30 17 -10 0 -22 5 -26 11 -4 7
-23 9 -50 5 -24 -3 -44 -2 -44 3 0 4 -11 6 -26 3 l-25 -5 30 -18 c52 -31 65
-83 36 -138 -17 -34 -33 -41 -88 -41 l-42 0 0 92 c0 73 3 94 15 100 8 3 -12 5
-44 5 l-60 -2 3 53 c2 47 0 53 -16 52 -32 -4 -44 0 -42 13 4 28 -2 37 -26 37
-21 0 -25 5 -25 28 l0 28 -191 1 -191 0 6 -28z m307 -16 c25 -11 61 -34 81
-51 19 -17 38 -29 41 -26 3 3 5 -1 4 -8 -1 -7 10 -35 23 -63 72 -150 10 -323
-142 -402 -75 -38 -180 -39 -255 0 -173 90 -226 300 -113 455 79 110 235 150
361 95z m-1296 -177 c28 -12 33 -18 27 -38 l-6 -23 -6 25 c-5 20 -13 26 -44
28 -25 2 -44 -2 -56 -13 -64 -58 1 -191 76 -156 22 10 26 17 22 46 -3 30 -1
35 17 35 18 0 20 -5 17 -35 -5 -44 -47 -70 -99 -62 -43 7 -62 23 -80 65 -20
49 -3 96 45 122 45 23 45 23 87 6z m165 -86 c12 -41 27 -81 32 -87 8 -10 4
-13 -16 -13 -15 0 -25 3 -23 8 11 18 -11 47 -36 47 -28 1 -44 -30 -27 -51 7
-8 2 -11 -19 -10 -25 1 -28 3 -17 16 8 8 26 53 41 98 15 46 31 80 35 75 5 -4
18 -42 30 -83z m102 0 c-2 -56 0 -90 7 -90 15 0 24 20 9 21 -10 0 -10 2 0 6 7
3 13 25 13 51 l2 47 7 -40 c9 -56 23 -22 18 45 -2 40 0 50 13 50 12 0 14 -7
11 -30 -4 -27 -1 -30 22 -30 17 0 26 5 26 16 0 8 5 12 10 9 6 -4 8 -10 5 -15
-8 -14 6 -61 16 -54 5 3 9 -4 9 -15 0 -22 -8 -24 -85 -21 -34 1 -42 -3 -52
-25 -9 -21 -9 -25 4 -25 9 0 22 8 30 18 7 9 13 13 12 7 -4 -29 2 -35 29 -29
15 4 29 11 30 16 5 11 22 10 22 -2 0 -5 -11 -17 -25 -26 -22 -15 -29 -15 -91
1 -36 9 -73 14 -81 10 -13 -4 -14 -3 -4 9 8 10 11 44 9 100 -3 80 -2 86 17 86
19 0 20 -6 17 -90z m288 70 c23 -23 26 -72 5 -90 -12 -10 -10 -15 14 -36 16
-13 42 -24 57 -24 23 0 26 -2 14 -10 -27 -17 -66 -11 -90 15 -13 14 -30 25
-39 25 -11 0 -9 5 7 20 37 34 26 110 -16 110 -11 0 -13 -19 -10 -90 3 -84 2
-90 -17 -90 -19 0 -20 7 -20 95 l0 95 38 0 c24 0 44 -7 57 -20z m82 -35 c-3
-34 1 -61 8 -70 11 -13 7 -15 -20 -15 -27 0 -31 2 -20 15 7 9 11 36 8 70 -2
44 0 55 12 55 12 0 14 -11 12 -55z m1118 10 c0 -25 5 -45 10 -45 6 0 10 6 10
13 0 8 3 7 10 -3 8 -13 9 -13 14 0 2 8 7 22 9 30 3 8 5 -5 5 -30 0 -25 -2 -39
-5 -32 -2 6 -16 12 -29 12 -21 0 -24 -4 -24 -40 0 -39 1 -40 34 -40 19 0 37 6
39 13 3 7 6 5 6 -5 1 -12 -7 -18 -21 -19 -89 -4 -96 -4 -86 8 5 6 8 50 6 97
-2 64 0 86 10 86 8 0 12 -16 12 -45z m-1786 -11 c12 -4 16 -20 16 -55 0 -46
-2 -49 -25 -49 -24 0 -25 3 -25 55 0 55 4 61 34 49z m876 1 c0 -23 -23 -54
-39 -52 -20 1 -37 37 -22 47 10 6 61 10 61 5z m697 -77 c-2 -18 -4 -6 -4 27 0
33 2 48 4 33 2 -15 2 -42 0 -60z"/>
<path d="M1267 573 c-12 -21 -21 -41 -20 -45 2 -4 -4 -5 -12 -2 -10 4 -15 0
-15 -10 0 -9 -4 -25 -10 -36 -5 -11 -14 -29 -20 -39 -10 -21 0 -34 37 -45 36
-11 63 -54 63 -98 0 -34 -7 -47 -55 -97 -71 -75 -74 -104 -12 -131 23 -10 57
-21 75 -25 l33 -7 -21 41 c-28 56 -29 135 -1 189 12 23 18 42 14 42 -5 0 -2 4
5 9 11 6 10 14 -6 40 -10 17 -22 28 -26 24 -4 -4 -4 1 0 11 4 11 3 17 -2 14
-5 -4 -9 23 -8 62 0 50 6 77 22 104 21 36 21 36 1 36 -12 0 -28 -14 -42 -37z
m3 -118 c0 -20 -5 -25 -25 -25 -20 0 -25 5 -25 25 0 20 5 25 25 25 20 0 25 -5
25 -25z m0 -320 c0 -20 -5 -25 -25 -25 -20 0 -25 5 -25 25 0 20 5 25 25 25 20
0 25 -5 25 -25z"/>
<path d="M1321 567 c-27 -55 -27 -105 0 -168 l22 -50 24 58 c36 84 38 106 13
158 -12 25 -25 45 -30 45 -5 0 -18 -19 -29 -43z m50 -37 c10 0 12 -31 3 -54
-3 -9 -13 -16 -21 -16 -13 0 -13 -3 -3 -15 9 -11 9 -15 1 -15 -7 0 -9 -4 -6
-10 3 -5 1 -10 -5 -10 -7 0 -10 6 -7 13 3 8 1 20 -4 28 -6 10 -2 16 14 21 l22
6 -22 1 c-21 1 -23 11 -14 60 1 2 8 0 17 -3 9 -3 20 -6 25 -6z"/>
<path d="M1390 573 c11 -21 21 -46 24 -56 5 -17 7 -17 38 -1 18 10 47 20 63
24 29 7 29 8 -35 39 -36 17 -75 31 -87 31 l-21 0 18 -37z m66 -4 c10 -17 -13
-36 -27 -22 -12 12 -4 33 11 33 5 0 12 -5 16 -11z"/>
<path d="M1195 566 c-51 -33 -95 -87 -115 -141 -18 -45 -15 -144 4 -200 19
-55 76 -132 76 -102 0 10 27 47 60 82 82 89 81 129 -5 179 -42 25 -56 48 -36
60 4 3 11 24 15 46 3 22 13 43 22 47 16 6 50 63 37 62 -5 0 -30 -15 -58 -33z
m-33 -141 l-4 -55 31 0 c26 0 31 -4 31 -25 0 -20 5 -25 25 -25 20 0 25 -5 25
-25 0 -20 -5 -25 -25 -25 -20 0 -25 5 -25 25 0 14 -6 28 -12 30 -30 11 -68 13
-68 4 0 -5 -5 -8 -12 -6 -7 1 -13 -4 -14 -10 -1 -7 -3 -16 -4 -20 -1 -5 -2
-11 -2 -15 1 -3 -4 -8 -12 -11 -7 -3 -13 1 -13 9 0 8 4 14 8 14 13 0 31 97 26
144 -4 44 -3 46 23 46 26 0 27 -1 22 -55z m22 -152 c-8 -8 -11 -20 -8 -26 4
-7 -4 -1 -17 13 -23 23 -24 27 -9 41 13 15 17 15 32 2 15 -13 15 -17 2 -30z
m-18 -68 c7 -29 2 -38 -25 -40 -13 -1 -21 6 -24 21 -8 44 38 62 49 19z"/>
<path d="M1485 515 c-22 -8 -52 -29 -67 -46 -27 -32 -63 -118 -53 -127 7 -8
91 27 120 49 29 24 50 60 60 107 8 37 2 39 -60 17z m-2 -54 c6 -25 0 -31 -30
-31 -18 0 -23 5 -23 25 0 20 5 25 24 25 15 0 26 -7 29 -19z m-43 -66 c-7 -8
-16 -13 -20 -10 -5 3 -11 1 -15 -5 -8 -13 -25 -13 -25 1 0 5 5 7 10 4 6 -3 10
0 10 8 0 10 7 13 20 10 12 -3 20 0 20 8 0 7 3 9 6 6 4 -4 1 -13 -6 -22z"/>
<path d="M1560 498 c0 -13 -9 -40 -20 -61 -25 -46 -25 -47 3 -47 12 0 37 -9
55 -20 18 -11 34 -20 36 -20 1 0 1 14 -2 30 -2 17 -9 30 -14 30 -5 0 -7 4 -4
8 7 12 -25 73 -35 66 -5 -3 -6 1 -3 9 3 8 1 18 -5 22 -7 4 -11 -3 -11 -17z"/>
<path d="M1446 352 c-27 -14 -43 -28 -35 -30 8 -2 32 -13 53 -24 46 -23 83
-19 136 13 l34 21 -44 24 c-57 29 -83 29 -144 -4z m94 -1 c0 -22 -25 -45 -40
-36 -5 3 -10 15 -10 26 0 11 5 17 10 14 6 -3 10 -1 10 4 0 6 7 11 15 11 8 0
15 -8 15 -19z"/>
<path d="M1360 316 c0 -27 47 -121 71 -141 34 -28 51 -32 43 -10 -4 8 -2 15 2
16 5 0 16 2 25 4 9 1 16 -3 16 -10 0 -7 -8 -10 -19 -7 -20 5 -22 -16 -3 -30
18 -14 55 -9 55 7 0 23 -28 86 -48 108 -27 30 -142 80 -142 63z m104 -52 c22
-9 20 -41 -3 -47 -25 -6 -31 0 -31 30 0 24 7 27 34 17z"/>
<path d="M1321 261 c-26 -62 -26 -113 -1 -169 23 -50 35 -50 62 -1 23 42 20
83 -14 162 l-25 58 -22 -50z m50 -51 c10 0 13 -93 3 -102 -3 -3 -14 -4 -25 -1
-16 5 -19 14 -19 60 0 46 3 54 16 49 9 -3 20 -6 25 -6z"/>
<path d="M1590 289 c-19 -10 -43 -20 -52 -23 -17 -5 -17 -7 0 -40 9 -18 20
-32 23 -30 3 1 3 -11 1 -28 -10 -68 55 31 68 105 8 42 8 42 -40 16z m6 -40
c10 -17 -13 -36 -27 -22 -12 12 -4 33 11 33 5 0 12 -5 16 -11z"/>
<path d="M1414 137 c-4 -12 -2 -23 5 -25 6 -2 11 -8 11 -14 0 -6 -6 -8 -13 -5
-7 3 -20 -8 -29 -24 -21 -36 -11 -37 66 -9 64 24 88 47 60 55 -11 3 -36 14
-56 24 -37 19 -37 19 -44 -2z"/>
<path d="M290 370 c0 -8 -3 -25 -6 -37 -5 -19 -2 -23 16 -23 18 0 20 4 14 23
-3 12 -10 29 -15 37 -7 13 -8 13 -9 0z"/>
<path d="M520 330 c0 -26 4 -30 28 -30 37 0 43 7 30 36 -7 15 -20 24 -35 24
-19 0 -23 -5 -23 -30z"/>
<path d="M2914 525 c3 -9 0 -15 -9 -15 -8 0 -15 -4 -15 -10 0 -5 -7 -10 -15
-10 -9 0 -15 -9 -15 -25 0 -20 -5 -25 -26 -25 -24 0 -26 -3 -19 -27 3 -16 10
-54 14 -85 6 -51 5 -58 -10 -58 -14 0 -18 11 -21 55 -3 52 5 62 15 20 4 -16 5
-15 6 5 1 27 -24 70 -41 70 -6 0 -9 -33 -6 -93 3 -89 2 -93 -17 -89 -19 3 -20
10 -17 93 3 73 1 89 -11 89 -17 0 -30 -27 -20 -42 4 -7 1 -8 -7 -3 -10 6 -12
0 -8 -24 2 -17 1 -31 -4 -31 -11 0 -10 41 3 78 9 28 16 31 57 35 26 3 2 4 -53
3 -55 -1 -106 -5 -112 -9 -17 -11 -18 -148 -1 -165 15 -15 54 -16 63 -2 4 6
-5 10 -19 10 -25 0 -26 3 -26 55 0 37 4 55 13 55 25 0 34 -16 39 -67 4 -41 1
-56 -12 -68 -25 -23 -54 -18 -81 12 -22 26 -24 34 -19 105 l5 77 -37 -3 c-38
-3 -42 1 -41 42 1 6 -5 12 -13 12 -9 0 -14 -11 -14 -28 l0 -28 -172 3 c-95 1
-179 -1 -187 -6 -10 -7 -14 -35 -14 -112 l-1 -104 212 0 212 0 0 -27 0 -28 85
0 85 0 -6 28 -6 27 164 0 c121 0 162 3 161 12 -2 7 -3 80 -4 162 l0 151 -31 0
c-23 0 -29 -4 -24 -15z m-710 -114 c19 -21 14 -61 -7 -61 -6 0 -1 -7 11 -16
14 -9 22 -26 22 -43 0 -42 -22 -55 -90 -52 -25 1 -25 2 -25 96 l0 95 36 0 c23
0 42 -7 53 -19z m160 3 c11 -29 6 -39 -10 -16 -8 12 -26 22 -40 22 -21 0 -24
-4 -24 -40 0 -22 2 -40 4 -40 14 0 35 13 31 20 -3 4 2 10 10 14 11 4 15 -2 15
-27 0 -18 5 -39 10 -47 6 -10 8 -3 3 23 -4 24 -2 37 6 37 6 0 11 -8 12 -17 0
-10 2 -28 3 -40 1 -12 -1 -20 -6 -17 -4 3 -8 -4 -8 -16 0 -26 -34 -40 -80 -31
l-35 6 0 93 0 92 51 0 c38 0 53 -4 58 -16z m118 -60 c27 -96 60 -134 115 -134
32 -1 35 -2 19 -12 -37 -21 -128 28 -148 81 -1 5 -16 7 -31 4 -24 -5 -28 -10
-25 -32 3 -21 0 -26 -17 -26 -20 0 -20 1 -3 35 10 19 18 42 18 52 0 10 4 26
10 36 5 9 14 29 20 45 5 15 12 27 15 27 2 0 14 -34 27 -76z m189 34 c-2 -24
-6 -36 -8 -28 -3 8 -8 27 -13 43 -7 22 -6 27 8 27 15 0 17 -7 13 -42z m278 15
c0 -27 -1 -27 -9 -5 -7 16 -18 22 -40 22 -28 0 -30 -2 -30 -40 0 -33 3 -40 20
-40 10 0 24 8 30 18 8 13 10 6 6 -33 -3 -27 -5 -51 -5 -52 -1 -2 -5 -3 -10 -3
-6 0 -6 12 -1 30 8 27 7 30 -16 30 -21 0 -24 -4 -24 -40 0 -37 2 -40 28 -40
15 0 33 5 40 12 9 9 12 8 12 -5 0 -11 -8 -17 -22 -18 -96 -5 -96 -5 -86 14 10
19 5 148 -6 166 -5 7 12 11 53 11 60 0 61 0 60 -27z"/>
<path d="M2140 385 c0 -32 3 -36 23 -33 17 2 22 10 22 33 0 23 -5 31 -22 33
-20 3 -23 -1 -23 -33z"/>
<path d="M2140 294 c0 -44 1 -45 28 -42 21 2 28 9 30 31 4 33 -13 57 -39 57
-16 0 -19 -8 -19 -46z"/>
<path d="M2290 289 c0 -39 1 -40 32 -37 34 3 55 38 24 38 -9 0 -15 3 -15 8 4
22 -3 32 -21 32 -17 0 -20 -7 -20 -41z"/>
<path d="M2433 345 c-11 -33 -10 -35 12 -35 23 0 23 2 13 33 -6 17 -12 33 -13
34 -1 2 -6 -13 -12 -32z"/>
<path d="M1776 422 c-3 -3 -6 -43 -6 -89 0 -81 1 -83 24 -83 13 0 29 7 36 15
20 24 24 89 6 122 -14 28 -48 48 -60 35z m31 -97 c-3 -72 -22 -72 -22 0 0 36
4 55 12 55 8 0 12 -17 10 -55z"/>
</g>
</svg>
